<svg width="264" height="256" viewBox="0 0 264 256" fill="none" xmlns="http://www.w3.org/2000/svg">
<path d="M0 9.14286V3.04762H0.5V0.5H3V0H9.00001V0.5H15V0H21V0.5H27V0H33V0.5H39V0H45V0.5H51V0H57V0.5H63V0H69V0.5H75V0H81V0.5H87V0H93V0.5H99V0H105V0.5H111V0H117V0.5H123V0H129V0.5H135V0H141V0.5H147V0H153V0.5H159V0H165V0.5H171V0H177V0.5H183V0H189V0.5H195V0H201V0.5H207V0H213V0.5H219V0H225V0.5H231V0H237V0.5H243V0H249V0.5H255V0H261V0.5H263.5V3.04747H264V9.14272H263.5V15.238H264V21.3332H263.5V27.4285H264V33.5237H263.5V39.6189H264V45.7142H263.5V51.8094H264V57.9047H263.5V63.9999H264V70.0952H263.5V76.1904H264V82.2857H263.5V88.3809H264V94.4762H263.5V100.571H264V106.667H263.5V112.762H264V118.857H263.5V124.952H264V131.048H263.5V137.143H264V143.238H263.5V149.333H264V155.429H263.5V161.524H264V167.619H263.5V173.714H264V179.81H263.5V185.905H264V192H263.5V198.095H264V204.19H263.5V210.286H264V216.381H263.5V222.476H264V228.571H263.5V234.667H264V240.762H263.5V246.857H264V252.952H263.5V255.5H261V256H255V255.5H249V256H243V255.5H237V256H231V255.5H225V256H219V255.5H213V256H207V255.5H201V256H195V255.5H189V256H183V255.5H177V256H171V255.5H165V256H159V255.5H153V256H147V255.5H141V256H135V255.5H129V256H123V255.5H117V256H111V255.5H105V256H99V255.5H93V256H87V255.5H81V256H75V255.5H69V256H63V255.5H57V256H51V255.5H45V256H39V255.5H33V256H27V255.5H21V256H15V255.5H9V256H3V255.5H0.5V252.953H0V246.857H0.5V240.762H0V234.667H0.5V228.572H0V222.476H0.5V216.381H0V210.286H0.5V204.191H0V198.095H0.5V192H0V185.905H0.5V179.81H0V173.714H0.5V167.619H0V161.524H0.5V155.429H0V149.333H0.5V143.238H0V137.143H0.5V131.048H0V124.952H0.5V118.857H0V112.762H0.5V106.667H0V100.571H0.5V94.4762H0V88.381H0.5V82.2857H0V76.1905H0.5V70.0952H0V64H0.5V57.9048H0V51.8095H0.5V45.7143H0V39.619H0.5V33.5238H0V27.4286H0.5V21.3333H0V15.2381H0.5V9.14286H0Z" fill="#BFDBFE"/>
<path fill-rule="evenodd" clip-rule="evenodd" d="M162.744 98.999H102.047C99.8117 98.999 98 100.832 98 103.094V152.23C98 154.491 99.8117 156.325 102.047 156.325H162.744C164.979 156.325 166.791 154.491 166.791 152.23V103.094C166.791 100.832 164.979 98.999 162.744 98.999ZM102.045 152.23V103.093H162.743V152.23H102.045ZM109.128 115.889C109.128 120.129 112.524 123.567 116.715 123.567C120.905 123.567 124.302 120.129 124.302 115.889C124.302 111.649 120.905 108.212 116.715 108.212C112.524 108.212 109.128 111.649 109.128 115.889ZM120.254 115.889C120.254 117.868 118.669 119.472 116.713 119.472C114.758 119.472 113.173 117.868 113.173 115.889C113.173 113.91 114.758 112.306 116.713 112.306C118.669 112.306 120.254 113.91 120.254 115.889ZM112.575 147.541C111.782 148.337 110.501 148.332 109.714 147.529C108.927 146.726 108.933 145.429 109.726 144.633L126.367 127.94L135.746 136.195C136.589 136.937 136.678 138.23 135.945 139.083C135.212 139.936 133.934 140.026 133.09 139.284L126.547 133.525L112.575 147.541ZM127.756 147.536C126.966 148.335 125.685 148.335 124.894 147.536C124.104 146.736 124.104 145.44 124.894 144.64L151.523 117.692L166.101 130.636C166.941 131.382 167.025 132.675 166.288 133.525C165.551 134.375 164.272 134.46 163.432 133.714L151.704 123.3L127.756 147.536Z" fill="#1D4ED8"/>
<path fill-rule="evenodd" clip-rule="evenodd" d="M162.744 98.999H102.047C99.8117 98.999 98 100.832 98 103.094V152.23C98 154.491 99.8117 156.325 102.047 156.325H162.744C164.979 156.325 166.791 154.491 166.791 152.23V103.094C166.791 100.832 164.979 98.999 162.744 98.999ZM102.045 152.23V103.093H162.743V152.23H102.045ZM109.128 115.889C109.128 120.129 112.524 123.567 116.715 123.567C120.905 123.567 124.302 120.129 124.302 115.889C124.302 111.649 120.905 108.212 116.715 108.212C112.524 108.212 109.128 111.649 109.128 115.889ZM120.254 115.889C120.254 117.868 118.669 119.472 116.713 119.472C114.758 119.472 113.173 117.868 113.173 115.889C113.173 113.91 114.758 112.306 116.713 112.306C118.669 112.306 120.254 113.91 120.254 115.889ZM112.575 147.541C111.782 148.337 110.501 148.332 109.714 147.529C108.927 146.726 108.933 145.429 109.726 144.633L126.367 127.94L135.746 136.195C136.589 136.937 136.678 138.23 135.945 139.083C135.212 139.936 133.934 140.026 133.09 139.284L126.547 133.525L112.575 147.541ZM127.756 147.536C126.966 148.335 125.685 148.335 124.894 147.536C124.104 146.736 124.104 145.44 124.894 144.64L151.523 117.692L166.101 130.636C166.941 131.382 167.025 132.675 166.288 133.525C165.551 134.375 164.272 134.46 163.432 133.714L151.704 123.3L127.756 147.536Z" fill="#1D4ED8"/>
<path d="M162.744 98.999H102.047C99.8117 98.999 98 100.832 98 103.094V152.23C98 154.491 99.8117 156.325 102.047 156.325H162.744C164.979 156.325 166.791 154.491 166.791 152.23V103.094C166.791 100.832 164.979 98.999 162.744 98.999ZM102.045 152.23V103.093H162.743V152.23H102.045ZM109.128 115.889C109.128 120.129 112.524 123.567 116.715 123.567C120.905 123.567 124.302 120.129 124.302 115.889C124.302 111.649 120.905 108.212 116.715 108.212C112.524 108.212 109.128 111.649 109.128 115.889ZM120.254 115.889C120.254 117.868 118.669 119.472 116.713 119.472C114.758 119.472 113.173 117.868 113.173 115.889C113.173 113.91 114.758 112.306 116.713 112.306C118.669 112.306 120.254 113.91 120.254 115.889ZM112.575 147.541C111.782 148.337 110.501 148.332 109.714 147.529C108.927 146.726 108.933 145.429 109.726 144.633L126.367 127.94L135.746 136.195C136.589 136.937 136.678 138.23 135.945 139.083C135.212 139.936 133.934 140.026 133.09 139.284L126.547 133.525L112.575 147.541ZM127.756 147.536C126.966 148.335 125.685 148.335 124.894 147.536C124.104 146.736 124.104 145.44 124.894 144.64L151.523 117.692L166.101 130.636C166.941 131.382 167.025 132.675 166.288 133.525C165.551 134.375 164.272 134.46 163.432 133.714L151.704 123.3L127.756 147.536Z" fill="#1D4ED8"/>
<path d="M162.744 98.999H102.047C99.8117 98.999 98 100.832 98 103.094V152.23C98 154.491 99.8117 156.325 102.047 156.325H162.744C164.979 156.325 166.791 154.491 166.791 152.23V103.094C166.791 100.832 164.979 98.999 162.744 98.999ZM102.045 152.23V103.093H162.743V152.23H102.045ZM109.128 115.889C109.128 120.129 112.524 123.567 116.715 123.567C120.905 123.567 124.302 120.129 124.302 115.889C124.302 111.649 120.905 108.212 116.715 108.212C112.524 108.212 109.128 111.649 109.128 115.889ZM120.254 115.889C120.254 117.868 118.669 119.472 116.713 119.472C114.758 119.472 113.173 117.868 113.173 115.889C113.173 113.91 114.758 112.306 116.713 112.306C118.669 112.306 120.254 113.91 120.254 115.889ZM112.575 147.541C111.782 148.337 110.501 148.332 109.714 147.529C108.927 146.726 108.933 145.429 109.726 144.633L126.367 127.94L135.746 136.195C136.589 136.937 136.678 138.23 135.945 139.083C135.212 139.936 133.934 140.026 133.09 139.284L126.547 133.525L112.575 147.541ZM127.756 147.536C126.966 148.335 125.685 148.335 124.894 147.536C124.104 146.736 124.104 145.44 124.894 144.64L151.523 117.692L166.101 130.636C166.941 131.382 167.025 132.675 166.288 133.525C165.551 134.375 164.272 134.46 163.432 133.714L151.704 123.3L127.756 147.536Z" fill="#1D4ED8"/>
<path d="M0 9.14286V3.04762H0.5V0.5H3V0H9.00001V0.5H15V0H21V0.5H27V0H33V0.5H39V0H45V0.5H51V0H57V0.5H63V0H69V0.5H75V0H81V0.5H87V0H93V0.5H99V0H105V0.5H111V0H117V0.5H123V0H129V0.5H135V0H141V0.5H147V0H153V0.5H159V0H165V0.5H171V0H177V0.5H183V0H189V0.5H195V0H201V0.5H207V0H213V0.5H219V0H225V0.5H231V0H237V0.5H243V0H249V0.5H255V0H261V0.5H263.5V3.04747H264V9.14272H263.5V15.238H264V21.3332H263.5V27.4285H264V33.5237H263.5V39.6189H264V45.7142H263.5V51.8094H264V57.9047H263.5V63.9999H264V70.0952H263.5V76.1904H264V82.2857H263.5V88.3809H264V94.4762H263.5V100.571H264V106.667H263.5V112.762H264V118.857H263.5V124.952H264V131.048H263.5V137.143H264V143.238H263.5V149.333H264V155.429H263.5V161.524H264V167.619H263.5V173.714H264V179.81H263.5V185.905H264V192H263.5V198.095H264V204.19H263.5V210.286H264V216.381H263.5V222.476H264V228.571H263.5V234.667H264V240.762H263.5V246.857H264V252.952H263.5V255.5H261V256H255V255.5H249V256H243V255.5H237V256H231V255.5H225V256H219V255.5H213V256H207V255.5H201V256H195V255.5H189V256H183V255.5H177V256H171V255.5H165V256H159V255.5H153V256H147V255.5H141V256H135V255.5H129V256H123V255.5H117V256H111V255.5H105V256H99V255.5H93V256H87V255.5H81V256H75V255.5H69V256H63V255.5H57V256H51V255.5H45V256H39V255.5H33V256H27V255.5H21V256H15V255.5H9V256H3V255.5H0.5V252.953H0V246.857H0.5V240.762H0V234.667H0.5V228.572H0V222.476H0.5V216.381H0V210.286H0.5V204.191H0V198.095H0.5V192H0V185.905H0.5V179.81H0V173.714H0.5V167.619H0V161.524H0.5V155.429H0V149.333H0.5V143.238H0V137.143H0.5V131.048H0V124.952H0.5V118.857H0V112.762H0.5V106.667H0V100.571H0.5V94.4762H0V88.381H0.5V82.2857H0V76.1905H0.5V70.0952H0V64H0.5V57.9048H0V51.8095H0.5V45.7143H0V39.619H0.5V33.5238H0V27.4286H0.5V21.3333H0V15.2381H0.5V9.14286H0Z" stroke="#1D4ED8" stroke-dasharray="6 6"/>
</svg>
